<?xml version="1.0" encoding="UTF-8"?>
<svg id="Layer_1" data-name="Layer 1" xmlns="http://www.w3.org/2000/svg" viewBox="0 0 717.85 192.15">
  <defs>
    <style>
      .cls-1 {
        fill: #019966;
      }

      .cls-1, .cls-2 {
        stroke-width: 0px;
      }

      .cls-2 {
        fill: #ffcd34;
      }
    </style>
  </defs>
  <path class="cls-2" d="M274.39,66.88S319.92-2.7,426.25,28.18c53.36,15.49,158.94,95.38,208.75,105.69.36.08,9.96.08,21.61.05,18.52-.04,42.22-.15,42.22-.15,0,0-140.4-74.57-205.22-100.06-42.69-16.78-154-60.58-219.22,33.17Z"/>
  <path class="cls-1" d="M97.59,59.34h12.7l-27.6,30.7,28.3,41.7h-13.7l-22.8-32.7-7.6,8.2v24.5h-11.7V59.34h11.7v33.8l30.7-33.8Z"/>
  <path class="cls-1" d="M122.12,131.74v-51.7h11.5v51.7h-11.5Z"/>
  <path class="cls-1" d="M127.92,71.34c-4.7,0-7.5-2.7-7.5-7.6s2.8-7.5,7.5-7.5,7.5,2.7,7.5,7.5-2.7,7.6-7.5,7.6Z"/>
  <path class="cls-1" d="M180.72,131.74v-33.3c0-6.5-2.4-9.9-8.5-9.9-5.2,0-10.6,3.2-13.1,5.5v37.7h-11.5v-51.7h10.2l.5,5.4c4.6-3.7,10.8-6.5,17.9-6.5,11.2,0,16,5.9,16,17.6v35.2h-11.5Z"/>
  <path class="cls-1" d="M240.62,131.74l-.8-5.2h-.2c-4.1,3.9-9.2,6.4-16.3,6.4-11.9,0-20-7.5-20-26.2,0-20.5,10.6-27.8,21.8-27.8,5.9,0,10.4,1.5,13.9,4.5v-27.2h11.2v75.5h-9.6ZM227.52,88.34c-9,0-12.3,7.5-12.3,18.3s3.5,17,11.8,17c4.4,0,8.9-2.4,11.7-5.3v-26c-2.2-1.7-6.3-4-11.2-4Z"/>
  <path class="cls-1" d="M301.92,93.64l-10,2.6c-1.2-5.1-3.1-8.7-9.8-8.7-6.3,0-8.9,2.7-8.9,6.1,0,4.8,4.4,6.2,11.2,7.4,8.9,1.6,18.4,3.7,18.4,15.5,0,10.7-8.6,16.4-21.3,16.4s-19.5-5-21.1-14.6l9.8-3.2c1.3,4.9,3.4,9.2,11.7,9.2,5.7,0,9.7-1.8,9.7-6.2,0-5.2-4.2-6.2-10.8-7.4-8.5-1.6-18.4-3.5-18.4-15.8,0-10.8,9.1-16,19.9-16,12,0,17.6,5.7,19.6,14.7Z"/>
  <path class="cls-1" d="M310.72,105.94c0-18.7,11.2-27,24.7-27,15,0,21.2,9.5,21.2,22.9,0,2.1-.1,4.5-.3,6.9h-33.5c.3,10.9,5.5,14.8,13,14.8,6.6,0,9.4-3.1,10.6-8.4l9.8,2.4c-2,9.8-9.9,15.4-21.1,15.4-18.6,0-24.4-12.8-24.4-27ZM334.72,88.04c-5.8,0-11.2,3.5-11.7,12.7h21.7c0-8.8-3.1-12.7-10-12.7Z"/>
  <path class="cls-1" d="M416.82,132.94c-10.2,0-15.4-4.9-15.4-15.9v-28.5h-20.6v27.1c0,5.1,1,7.9,6.7,7.9,2.5,0,5.6-1,7.8-2.1l2,8.3c-2.7,1.6-7.7,3.2-12.6,3.2-10.2,0-15.4-4.6-15.4-15.6v-28.8h-7.9v-8.5h7.9v-15.1l11.5-1.6v16.7h20.6v-15.1l11.5-1.6v16.7h14v8.5h-14v27.1c0,5.1,1.3,7.8,6.9,7.8,3.1,0,6.7-1.2,8.8-2.4l1.9,8.3c-2.6,1.7-8.2,3.6-13.7,3.6Z"/>
  <path class="cls-1" d="M438.72,131.74V56.24h11.5v75.5h-11.5Z"/>
  <path class="cls-1" d="M461.42,105.94c0-18.7,11.2-27,24.7-27,15,0,21.2,9.5,21.2,22.9,0,2.1-.1,4.5-.3,6.9h-33.5c.3,10.9,5.5,14.8,13,14.8,6.6,0,9.4-3.1,10.6-8.4l9.8,2.4c-2,9.8-9.9,15.4-21.1,15.4-18.6,0-24.4-12.8-24.4-27ZM485.42,88.04c-5.8,0-11.2,3.5-11.7,12.7h21.7c0-8.8-3.1-12.7-10-12.7Z"/>
  <path class="cls-2" d="M521.02,132.94c-5.2,0-7.8-2.5-7.8-7.5s2.6-7.6,7.8-7.6,7.8,2.6,7.8,7.6-2.6,7.5-7.8,7.5Z"/>
  <path class="cls-2" d="M215.22,146.64s-21.07,18.81-73.37,18.81-109.11-27.77-109.11-27.77c0,0,56.18,44.42,105.58,44.42,51.9,0,76.9-35.47,76.9-35.47Z"/>
  <path class="cls-2" d="M44.22,124.87c-21.01-1.04-33.97,12.83-17.95,24.63,0,0-5.98-14.67,3.75-19.91,3.84-2.07,8.83-3.78,14.2-4.72Z"/>
</svg>